<svg width="144" height="80" viewBox="0 0 144 80" fill="none" xmlns="http://www.w3.org/2000/svg">
<g clip-path="url(#clip0_3132_31)">
<path d="M102.722 0H40.5C18.4444 0 0.5 17.9444 0.5 40C0.5 62.0556 18.4444 80 40.5 80H102.722C124.778 80 142.722 62.0556 142.722 40C142.722 17.9444 124.778 0 102.722 0ZM102.722 71.1111C96.569 71.1111 90.554 69.2865 85.4378 65.8679C80.3216 62.4494 76.334 57.5905 73.9793 51.9057C71.6246 46.2209 71.0085 39.9655 72.2089 33.9305C73.4093 27.8956 76.3724 22.3521 80.7234 18.0011C85.0743 13.6502 90.6178 10.6871 96.6527 9.48668C102.688 8.28625 108.943 8.90236 114.628 11.2571C120.313 13.6118 125.172 17.5994 128.59 22.7156C132.009 27.8318 133.833 33.8468 133.833 40C133.825 48.2485 130.544 56.1566 124.711 61.9891C118.879 67.8217 110.971 71.1023 102.722 71.1111Z" fill="#2F71E5"/>
</g>
<defs>
<clipPath id="clip0_3132_31">
<rect width="143" height="80" fill="white" transform="translate(0.5)"/>
</clipPath>
</defs>
</svg>
